<svg width="792" height="300" viewBox="0 0 792 300" fill="none" xmlns="http://www.w3.org/2000/svg">
<rect width="792" height="300" fill="url(#paint0_linear_119_2302)"/>
<path d="M86.7607 112.528L88.8856 115.475L92.3444 114.364L90.1988 117.296L92.3237 120.242L88.8728 119.107L86.7272 122.039L86.74 118.406L83.289 117.271L86.7479 116.161L86.7607 112.528Z" fill="white"/>
<path d="M369.42 130.648L372.708 132.192L375.193 129.542L374.74 133.146L378.028 134.691L374.461 135.374L374.008 138.978L372.256 135.796L368.688 136.48L371.172 133.83L369.42 130.648Z" fill="white"/>
<path d="M17.8595 72.2473L17.8531 75.88L21.3061 77.0086L17.8492 78.1251L17.8428 81.7578L15.7127 78.8151L12.2559 79.9317L14.3963 76.9965L12.2662 74.0538L15.7191 75.1824L17.8595 72.2473Z" fill="white"/>
<path d="M381.821 34.1549L381.345 37.7563L384.623 39.322L381.051 39.9821L380.575 43.5835L378.843 40.3901L375.271 41.0502L377.773 38.4164L376.041 35.223L379.319 36.7887L381.821 34.1549Z" fill="white"/>
<line x1="15.0526" y1="77.569" x2="32.0526" y2="67.569" stroke="white"/>
<path d="M290.761 34.5283L292.886 37.4748L296.344 36.3644L294.199 39.2958L296.324 42.2422L292.873 41.1075L290.727 44.0388L290.74 40.4062L287.289 39.2714L290.748 38.161L290.761 34.5283Z" fill="white"/>
<path d="M263.42 93.6475L266.708 95.1918L269.193 92.5418L268.74 96.1462L272.028 97.6905L268.461 98.3739L268.008 101.978L266.256 98.7962L262.688 99.4796L265.172 96.8296L263.42 93.6475Z" fill="white"/>
<path d="M161.599 47.3994L161.71 51.0305L165.197 52.0472L161.778 53.2746L161.889 56.9056L159.665 54.0331L156.246 55.2604L158.291 52.2578L156.067 49.3853L159.554 50.4021L161.599 47.3994Z" fill="white"/>
<path d="M191.859 105.247L191.853 108.88L195.306 110.009L191.849 111.125L191.842 114.758L189.712 111.815L186.255 112.932L188.396 109.996L186.266 107.054L189.719 108.182L191.859 105.247Z" fill="white"/>
<path d="M214.821 160.155L214.345 163.756L217.623 165.322L214.051 165.982L213.575 169.583L211.843 166.39L208.271 167.05L210.773 164.416L209.041 161.223L212.319 162.789L214.821 160.155Z" fill="white"/>
<path d="M304 153L305.123 156.455H308.755L305.816 158.59L306.939 162.045L304 159.91L301.061 162.045L302.184 158.59L299.245 156.455H302.877L304 153Z" fill="white"/>
<line x1="189.052" y1="110.569" x2="206.052" y2="100.569" stroke="white"/>
<defs>
<linearGradient id="paint0_linear_119_2302" x1="0" y1="0" x2="792" y2="300" gradientUnits="userSpaceOnUse">
<stop stop-color="#CD77F5"/>
<stop offset="0.597802" stop-color="#890FD5" stop-opacity="0.37"/>
<stop offset="0.96875" stop-color="#AE4AEC" stop-opacity="0.41"/>
</linearGradient>
</defs>
</svg>
