<svg width="230" height="44" viewBox="0 0 230 44" fill="none" xmlns="http://www.w3.org/2000/svg">
<circle cx="22" cy="22" r="22" fill="#BA96D3"/>
<mask id="mask0_119_1821" style="mask-type:alpha" maskUnits="userSpaceOnUse" x="0" y="0" width="44" height="44">
<path d="M44 22C44 34.1503 34.1503 44 22 44C9.84974 44 0 34.1503 0 22C0 9.84974 9.84974 0 22 0C34.1503 0 44 9.84974 44 22Z" fill="#C4C4C4"/>
</mask>
<g mask="url(#mask0_119_1821)">
<path d="M29.8572 -1C41.5298 20.0264 40.8956 30.3867 29.8572 46.9286" stroke="white"/>
<path d="M14.5183 46.9286C2.84566 25.9022 3.47989 15.5419 14.5183 -0.999981" stroke="white"/>
<path d="M-1.57153 18.0714C17.7229 9.10201 28.2248 9.45364 46.357 18.0714" stroke="white"/>
<path d="M46.3572 25.9286C25.9044 34.6146 15.4923 34.3051 -1.57139 25.9286" stroke="white"/>
<line x1="21.5981" y1="46.3669" x2="21.5981" y2="31.9994" stroke="white"/>
<line x1="21.5" y1="12" x2="21.5" y2="-2" stroke="white"/>
</g>
<path d="M66.152 11.864C68.488 11.864 70.208 12.288 71.312 13.136C72.432 13.984 72.992 15.272 72.992 17C72.992 17.784 72.84 18.472 72.536 19.064C72.248 19.64 71.856 20.136 71.36 20.552C70.88 20.952 70.36 21.28 69.8 21.536L74.84 29H70.808L66.728 22.424H64.784V29H61.16V11.864H66.152ZM65.888 14.84H64.784V19.472H65.96C67.16 19.472 68.016 19.272 68.528 18.872C69.056 18.472 69.32 17.88 69.32 17.096C69.32 16.28 69.04 15.704 68.48 15.368C67.936 15.016 67.072 14.84 65.888 14.84ZM89.9398 15.896V29H87.2038L86.7238 27.32H86.5318C86.1158 27.992 85.5398 28.48 84.8038 28.784C84.0838 29.088 83.3158 29.24 82.4998 29.24C81.0918 29.24 79.9638 28.864 79.1158 28.112C78.2678 27.344 77.8438 26.12 77.8438 24.44V15.896H81.4198V23.552C81.4198 24.48 81.5878 25.184 81.9238 25.664C82.2598 26.144 82.7958 26.384 83.5318 26.384C84.6198 26.384 85.3638 26.016 85.7638 25.28C86.1638 24.528 86.3638 23.456 86.3638 22.064V15.896H89.9398ZM110.273 15.656C111.761 15.656 112.881 16.04 113.633 16.808C114.401 17.56 114.785 18.776 114.785 20.456V29H111.209V21.344C111.209 19.456 110.553 18.512 109.241 18.512C108.297 18.512 107.625 18.848 107.225 19.52C106.825 20.192 106.625 21.16 106.625 22.424V29H103.049V21.344C103.049 19.456 102.393 18.512 101.081 18.512C100.089 18.512 99.4012 18.888 99.0172 19.64C98.6492 20.376 98.4652 21.44 98.4652 22.832V29H94.8892V15.896H97.6252L98.1052 17.576H98.2972C98.6972 16.904 99.2412 16.416 99.9292 16.112C100.633 15.808 101.361 15.656 102.113 15.656C103.073 15.656 103.889 15.816 104.561 16.136C105.233 16.44 105.745 16.92 106.097 17.576H106.409C106.809 16.904 107.361 16.416 108.065 16.112C108.785 15.808 109.521 15.656 110.273 15.656ZM125.043 15.632C126.803 15.632 128.147 16.016 129.075 16.784C130.019 17.536 130.491 18.696 130.491 20.264V29H127.995L127.299 27.224H127.203C126.643 27.928 126.051 28.44 125.427 28.76C124.803 29.08 123.947 29.24 122.859 29.24C121.691 29.24 120.723 28.904 119.955 28.232C119.187 27.544 118.803 26.496 118.803 25.088C118.803 23.696 119.291 22.672 120.267 22.016C121.243 21.344 122.707 20.976 124.659 20.912L126.939 20.84V20.264C126.939 19.576 126.755 19.072 126.387 18.752C126.035 18.432 125.539 18.272 124.899 18.272C124.259 18.272 123.635 18.368 123.027 18.56C122.419 18.736 121.811 18.96 121.203 19.232L120.027 16.808C120.731 16.44 121.507 16.152 122.355 15.944C123.219 15.736 124.115 15.632 125.043 15.632ZM125.547 22.976C124.395 23.008 123.595 23.216 123.147 23.6C122.699 23.984 122.475 24.488 122.475 25.112C122.475 25.656 122.635 26.048 122.955 26.288C123.275 26.512 123.691 26.624 124.203 26.624C124.971 26.624 125.619 26.4 126.147 25.952C126.675 25.488 126.939 24.84 126.939 24.008V22.928L125.547 22.976ZM138.928 14.48C138.928 15.12 138.904 15.736 138.856 16.328C138.824 16.92 138.792 17.336 138.76 17.576H138.952C139.368 16.904 139.904 16.416 140.56 16.112C141.216 15.808 141.944 15.656 142.744 15.656C144.168 15.656 145.304 16.04 146.152 16.808C147.016 17.56 147.448 18.776 147.448 20.456V29H143.872V21.344C143.872 19.456 143.168 18.512 141.76 18.512C140.688 18.512 139.944 18.888 139.528 19.64C139.128 20.376 138.928 21.44 138.928 22.832V29H135.352V10.76H138.928V14.48ZM173.823 29H169.695L165.207 21.776L163.671 22.88V29H160.047V11.864H163.671V19.712C163.911 19.376 164.151 19.04 164.391 18.704C164.631 18.368 164.871 18.032 165.111 17.696L169.743 11.864H173.775L167.799 19.448L173.823 29ZM178.697 10.76C179.225 10.76 179.681 10.888 180.065 11.144C180.449 11.384 180.641 11.84 180.641 12.512C180.641 13.168 180.449 13.624 180.065 13.88C179.681 14.136 179.225 14.264 178.697 14.264C178.153 14.264 177.689 14.136 177.305 13.88C176.937 13.624 176.753 13.168 176.753 12.512C176.753 11.84 176.937 11.384 177.305 11.144C177.689 10.888 178.153 10.76 178.697 10.76ZM180.473 15.896V29H176.897V15.896H180.473ZM190.929 26.384C191.329 26.384 191.713 26.344 192.081 26.264C192.449 26.184 192.817 26.088 193.185 25.976V28.64C192.801 28.8 192.321 28.936 191.745 29.048C191.185 29.176 190.569 29.24 189.897 29.24C189.113 29.24 188.409 29.112 187.785 28.856C187.177 28.6 186.689 28.16 186.321 27.536C185.969 26.896 185.793 26.016 185.793 24.896V18.584H184.089V17.072L186.057 15.872L187.089 13.112H189.369V15.896H193.041V18.584H189.369V24.896C189.369 25.392 189.513 25.768 189.801 26.024C190.089 26.264 190.465 26.384 190.929 26.384ZM202.392 15.632C204.152 15.632 205.496 16.016 206.424 16.784C207.368 17.536 207.84 18.696 207.84 20.264V29H205.344L204.648 27.224H204.552C203.992 27.928 203.4 28.44 202.776 28.76C202.152 29.08 201.296 29.24 200.208 29.24C199.04 29.24 198.072 28.904 197.304 28.232C196.536 27.544 196.152 26.496 196.152 25.088C196.152 23.696 196.64 22.672 197.616 22.016C198.592 21.344 200.056 20.976 202.008 20.912L204.288 20.84V20.264C204.288 19.576 204.104 19.072 203.736 18.752C203.384 18.432 202.888 18.272 202.248 18.272C201.608 18.272 200.984 18.368 200.376 18.56C199.768 18.736 199.16 18.96 198.552 19.232L197.376 16.808C198.08 16.44 198.856 16.152 199.704 15.944C200.568 15.736 201.464 15.632 202.392 15.632ZM202.896 22.976C201.744 23.008 200.944 23.216 200.496 23.6C200.048 23.984 199.824 24.488 199.824 25.112C199.824 25.656 199.984 26.048 200.304 26.288C200.624 26.512 201.04 26.624 201.552 26.624C202.32 26.624 202.968 26.4 203.496 25.952C204.024 25.488 204.288 24.84 204.288 24.008V22.928L202.896 22.976Z" fill="#1B105B"/>
<path d="M14.9675 22.2145C14.902 22.0764 14.8413 21.9361 14.7854 21.7938C14.5559 21.2062 14.4167 20.5889 14.4167 19.95C14.4167 17.8374 16.1465 16.125 18.2807 16.125C19.6244 16.125 20.808 16.8043 21.5001 17.8349C21.855 17.3074 22.3344 16.8754 22.8959 16.5772C23.4574 16.279 24.0837 16.1237 24.7195 16.125C26.854 16.125 28.5834 17.8374 28.5834 19.95C28.5834 22.7001 26.0076 25.05 24.7195 26.325C23.8613 27.175 22.7878 28.025 21.5001 28.875C20.2123 28.025 19.1389 27.175 18.2807 26.325C18.1507 26.1968 18.008 26.0573 17.8561 25.9078" stroke="white" stroke-linecap="round" stroke-linejoin="round"/>
<path d="M15.8334 24.6154L19.7696 20.7433L22.0589 23.1042L25.4887 19.6025" stroke="white" stroke-linecap="round" stroke-linejoin="round"/>
</svg>
